<svg xmlns="http://www.w3.org/2000/svg" xmlns:xlink="http://www.w3.org/1999/xlink" width="535" height="479" fill="none" xmlns:v="https://vecta.io/nano"><style><![CDATA[.B{fill:#407bff}.C{fill:#e58a7b}.D{fill:#e0e0e0}.E{fill:#fff}.F{fill:#000}.G{fill:#263238}.H{fill:#f5f5f5}.I{opacity:.2}.J{fill:#fafafa}.K{fill:#e6e6e6}.L{fill:#cf6f64}]]></style><g opacity=".33"><g class="K"><path d="M110.118 458.412h-42.11v.334h42.11v-.334zm-55.434 0H30.285v.334h24.399v-.334zm164.432.924h-24.398v.335h24.398v-.335zm127.218 5.468h-54.913v.335h54.913v-.335zm-66.228 6h-8.048v.335h8.048v-.335zm247.71-7.468H408.71v.335h119.106v-.335zm-275.071-84.862H7.247c-1.923-.003-3.767-.81-5.125-2.243S0 372.857 0 370.832V7.575c.017-2.013.787-3.937 2.144-5.356S5.335.003 7.247 0h245.498c1.926 0 3.772.805 5.134 2.238s2.126 3.377 2.126 5.404v363.19c0 2.027-.765 3.971-2.126 5.404s-3.208 2.238-5.134 2.238zM7.247.268c-1.839.004-3.601.775-4.9 2.145S.318 5.639.318 7.575v363.257c0 1.936.73 3.793 2.029 5.163s3.062 2.141 4.9 2.144h245.498c1.84-.003 3.604-.774 4.905-2.144s2.034-3.226 2.037-5.163V7.575c-.003-1.937-.736-3.793-2.037-5.163S254.585.271 252.745.268H7.247zm520.519 378.206H282.255c-1.924-.003-3.769-.81-5.13-2.242s-2.127-3.374-2.13-5.4V7.575c.02-2.014.794-3.939 2.152-5.356S280.341.003 282.255 0h245.511c1.91.007 3.74.806 5.094 2.224s2.123 3.34 2.14 5.351v363.257c0 2.022-.761 3.962-2.117 5.394s-3.196 2.241-5.117 2.248zM282.255.268c-1.84.004-3.604.775-4.905 2.144s-2.034 3.226-2.037 5.163v363.257c.003 1.937.736 3.794 2.037 5.163s3.065 2.141 4.905 2.144h245.511c1.84-.003 3.604-.774 4.905-2.144s2.033-3.226 2.037-5.163V7.575c-.004-1.937-.736-3.793-2.037-5.163S529.606.271 527.766.268H282.255z"/></g><path d="M291.396 323.844h-27.958v116.741h27.958V323.844z" class="D"/><path d="M286.082 440.585h5.314v-15.899h-10.883l5.569 15.899z" class="J"/><path d="M168.882 323.844h-27.958v116.741h27.958V323.844z" class="D"/><path d="M291.396 323.844H164.254V430.829H291.396V323.844Z" class="J"/><path d="M286.781 329.104v28.305H168.832v-28.305h117.911.038zm.458-.522H168.374v29.336h118.903v-29.336h-.038z" class="D"/><path d="M169.556 440.585h-5.302v-15.899h10.871l-5.569 15.899z" class="J"/><path d="M225.016 343.25c0 .585.164 1.156.473 1.643s.748.865 1.261 1.089 1.079.283 1.624.168 1.045-.395 1.438-.809a3.01 3.01 0 0 0 .769-1.514c.109-.574.053-1.169-.16-1.709s-.572-1.003-1.034-1.328-1.006-.498-1.562-.498c-.745 0-1.459.312-1.986.866a3.04 3.04 0 0 0-.823 2.092z" class="K"/><path d="M286.781 363.177v28.305H168.832v-28.305h117.911.038zm.458-.509H168.374v29.336h118.903v-29.322l-.038-.014z" class="D"/><path d="M225.016 377.403a3.07 3.07 0 0 0 .473 1.644c.309.486.748.865 1.261 1.089a2.68 2.68 0 0 0 1.624.168 2.77 2.77 0 0 0 1.438-.809c.393-.414.661-.941.769-1.515a3.09 3.09 0 0 0-.16-1.708c-.212-.541-.572-1.003-1.034-1.328s-1.006-.498-1.562-.498c-.745 0-1.459.311-1.986.866a3.04 3.04 0 0 0-.823 2.091z" class="K"/><path d="M286.781 397.264v28.319H168.832v-28.319h117.911.038zm.458-.522H168.374v29.349h118.903v-29.349h-.038z" class="D"/><path d="M225.016 411.423c.002.585.169 1.155.479 1.64a2.85 2.85 0 0 0 1.264 1.083c.514.222 1.078.279 1.622.163s1.044-.398 1.436-.813a3.01 3.01 0 0 0 .765-1.514 3.1 3.1 0 0 0-.162-1.707c-.213-.54-.573-1.001-1.035-1.325s-1.004-.498-1.56-.498a2.68 2.68 0 0 0-1.078.227c-.341.149-.652.368-.913.644a2.97 2.97 0 0 0-.608.964 3.08 3.08 0 0 0-.21 1.136z" class="K"/><path d="M151.807 256.045h-27.958v184.553h27.958V256.045z" class="D"/><path d="M146.493 440.585h5.314v-15.899h-10.87l5.556 15.899z" class="J"/><path d="M47.322 256.045H19.364v184.553h27.958V256.045z" class="D"/><path d="M151.807 256.045H42.682v174.797h109.125V256.045z" class="J"/><g class="D"><path d="M147.103 260.97v39.574H47.386V260.97h99.717zm.585-.602H46.775v40.752h100.887v-40.738l.026-.014zm-.585 45.007v104.964h-47.5V305.375h47.5zm.585-.615H99.031v106.195h48.657V304.76zm-52.802.615v104.964h-47.5V305.375h47.5zm.572-.615H46.775v106.195h48.657V304.76h.025z"/></g><path d="M47.996 440.585h-5.315v-15.899h10.883l-5.569 15.899z" class="J"/><g class="K"><path d="M94.428 280.777c-.003.589.161 1.164.469 1.655s.749.873 1.264 1.1 1.084.288 1.632.174a2.78 2.78 0 0 0 1.448-.81c.396-.414.666-.944.776-1.521s.055-1.174-.158-1.718a2.95 2.95 0 0 0-1.04-1.336c-.464-.327-1.011-.501-1.569-.501-.746 0-1.462.311-1.991.865a3.05 3.05 0 0 0-.831 2.092zm10.07 74.584a3.08 3.08 0 0 0 .476 1.652c.311.489.752.87 1.269 1.094s1.085.283 1.632.167 1.051-.4 1.445-.817a3.02 3.02 0 0 0 .77-1.524 3.12 3.12 0 0 0-.166-1.718c-.216-.543-.579-1.006-1.045-1.331s-1.013-.496-1.572-.494a2.68 2.68 0 0 0-1.078.227c-.342.149-.652.368-.913.644a2.97 2.97 0 0 0-.608.964 3.08 3.08 0 0 0-.21 1.136zm-20.126.001c.002.584.169 1.155.48 1.639s.75.862 1.264 1.084a2.68 2.68 0 0 0 1.622.162c.544-.115 1.044-.398 1.435-.812a3.01 3.01 0 0 0 .765-1.515c.107-.574.051-1.167-.162-1.707a2.93 2.93 0 0 0-1.035-1.325c-.462-.325-1.005-.497-1.56-.497-.37 0-.736.077-1.078.226s-.652.369-.913.645a2.96 2.96 0 0 0-.608.964 3.09 3.09 0 0 0-.21 1.136z"/></g><path d="M81.193 204.587H69.407a137.71 137.71 0 0 1 2.047 18.228c0 6.692-8.976 33.23 3.814 33.23s3.814-26.471 3.814-33.23c.298-6.12 1.003-12.211 2.111-18.228z" class="D"/><path d="M36.35 231.729v8.029c.013 4.305 1.644 8.429 4.536 11.473s6.81 4.76 10.899 4.774h7.629c4.09-.014 8.008-1.73 10.899-4.774s4.522-7.168 4.536-11.473v-8.029H36.35z" class="H"/><g class="D"><path d="M200.197 306.821c0 9.368 9.955 17.023 22.123 17.023h10.985c12.167 0 22.123-7.655 22.123-17.023h-55.231zm291.079-13.731c-6.663 5.728-15.868 16.207-24.284 30.955-5.62 9.823-9.002 20.075-10.49 33.699l.14-47.524 8.328-20.583c9.243-24.397 12.714-30.406 21.017-51.444 11.099-28.105 22.466-61.375 19.211-58.712-6.637 5.42-32.065 55.54-34.812 62.713-7.485 19.144-12.113 39.391-13.718 60.023l.152-38.49c.178-33.872.725-44.806.992-48.179l2.95-4.777c5.975-9.101 8.277-16.836 13.896-30.407 7.985-19.205 14.85-53.318 12.842-51.605-8.366 7.173-14.952 22.564-23.623 42.197s-6.192 30.915-7.909 47.67c-.356 3.293-.635 15.712-.839 32.909-2.237-18.334-6.459-30.406-14.151-41.38-9.459-13.504-18.613-22.618-25.326-27.382s11.595 28.399 20.342 42.826c7.794 12.901 14.978 24.264 19.072 35.465l-.318 80.299c-2.009-12.5-5.289-25.977-9.663-36.402-5.264-12.527-13.35-31.745-19.796-38.262-1.538-1.566 6.739 35.813 12.053 45.743s9.218 19.312 12.562 24.946c.775 1.338 3.369 6.384 4.844 9.301l.458 73.233h1.373c-.089-2.597-.115-19.674-.077-42.264 3.319-12.259 10.896-26.258 17.152-39.025 6.815-13.825 24.284-51.231 17.622-45.543z"/></g><path d="M475.803 440.585h-39.846l-3.014-41.113h45.873l-3.013 41.113z" fill="#f0f0f0"/><path d="M481.779 404.264h-51.81l-1.475-13.879h54.772l-1.487 13.879z" class="H"/><path d="M109.406 27.436H38.143v82.374h71.263V27.436z" class="D"/><path d="M117.123 27.436H43.508v82.374h73.615V27.436z" class="H"/><path d="M110.957 103.318V33.926H49.674v69.392h61.283z" class="E"/><path d="M96.094 86.482V50.735H64.524v35.746h31.569z" class="H"/><path d="M472.764 37.031h-66.202v76.525h66.202V37.031z" class="D"/><path d="M479.935 37.031h-68.377v76.525h68.377V37.031z" class="H"/><path d="M474.213 107.52V43.067h-56.921v64.453h56.921z" class="E"/><path d="M445.747 93.99c9.809 0 17.761-8.371 17.761-18.696s-7.952-18.696-17.761-18.696-17.762 8.37-17.762 18.696 7.952 18.696 17.762 18.696z" class="H"/><path d="M183.44 76.551h-52.865v61.108h52.865V76.551z" class="D"/><path d="M189.162 76.551h-54.608v61.108h54.608V76.551z" class="H"/><path d="M184.584 132.841V81.369h-45.453v51.472h45.453z" class="E"/><path d="M161.864 94.083l-12.434 22.671h24.869l-12.435-22.671z" class="H"/></g><path d="M259.578 478.15c143.309 0 259.485-6.783 259.485-15.15s-116.176-15.15-259.485-15.15S.093 454.633.093 463s116.175 15.15 259.485 15.15z" class="H"/><path d="M392.405 124.662l-13.276-5.353s-17.519 31.945-22.538 33.564c-6.825 2.195-20.958 8.298-29.335 9.369-1.138 1.338-2.998 5.5-2.824 7.012 11.255 3.761 35.987-1.231 41.287-5.166 12.058-8.926 26.686-39.426 26.686-39.426z" class="C"/><use xlink:href="#B" class="B"/><g class="F"><use xlink:href="#B" class="I"/><path d="M374.953 139.009l6.919 3.881 1.218-21.239c-4.028 3.091-6.865 12.406-8.137 17.358z" class="I"/></g><use xlink:href="#C" class="B"/><use xlink:href="#C" class="F I"/><path d="M372.424 464.204c-.081 1.446 20.355 2.61 45.636 2.61s45.864-1.164 45.944-2.61-20.342-2.596-45.636-2.596-45.851 1.164-45.944 2.596z" fill="#e8ecf1" style="mix-blend-mode:multiply"/><path d="M408.398 426.227l-9.559 3.7 8.234 21.271 9.559-3.7-8.234-21.271zm42.625 27.686h-10.078l-3.694-23.327h10.078l3.694 23.327z" class="C"/><path d="M440.249 452.749h11.322c.196 0 .386.07.536.198a.83.83 0 0 1 .28.497l1.459 8.954a1.58 1.58 0 0 1-.052.67c-.066.217-.177.417-.327.588a1.58 1.58 0 0 1-.542.398c-.207.092-.431.139-.658.137-3.948-.067-5.848-.308-10.827-.308-3.065 0-9.368.322-13.624.322s-4.537-4.176-2.784-4.564c7.87-1.7 10.921-4.015 13.544-6.263.463-.407 1.057-.63 1.673-.629zm-33.458-3.453l10.707-3.132c.191-.054.395-.041.577.037a.88.88 0 0 1 .427.391l4.015 8.03c.093.204.14.425.139.649s-.051.446-.147.648-.234.382-.406.526a1.54 1.54 0 0 1-.59.305l-11.376 3.145c-3.359.977-6.785 2.57-10.104 3.627-2.302.736-7.709.763-10.506.763-4.135 0-5.059-4.363-3.279-4.564 4.484-.495 5.086-.268 7.562-1.512a34.38 34.38 0 0 0 10.813-7.468 5.02 5.02 0 0 1 2.168-1.445z" class="G"/><g class="C"><path d="M328.942 162.188l-11.082-4.644-4.563 12.286c4.542.691 9.162.691 13.704 0l1.941-7.642z"/><path d="M309.617 157.223l-.295 8.164 3.975 4.416 4.564-12.286-8.244-.294z"/></g><path d="M409.71 428.033l-9.589 3.702 4.247 10.999 9.588-3.702-4.246-10.999zm37.619 2.553h-10.078l1.914 12.032h10.078l-1.914-12.032z" class="L"/><path d="M377.509 182.289l.723 7.441 40.069-13.008c6.257-1.855 11.696-5.787 15.417-11.148.161-3.573.362-7.334.669-11.255l.469-5.835c.174-1.981.415-4.176.669-6.29l-58.016 40.095z" class="F I"/><path d="M390.598 138.393l-1.339-.161c.79-6.691 5.782-11.964 11.041-11.83v1.338c-4.603-.094-8.993 4.657-9.702 10.653zm7.133 12.353h-.228v-1.339c4.604.174 8.927-4.63 9.636-10.613l1.339.161c-.71 6.544-5.541 11.791-10.747 11.791z" class="E"/><path d="M422.744 81.929c-1.887 7.374-4.109 20.878.749 25.79 0 0-3.399 7.481-17.09 7.481-12.513 0-5.808-7.481-5.808-7.481 8.324-1.954 8.471-8.03 7.374-13.785l14.775-12.005z" class="C"/><path d="M416.722 86.828l-8.74 7.106c.271 1.322.428 2.666.469 4.015 2.556 2.543 7.682-3.894 8.204-7.187a10.71 10.71 0 0 0 .067-3.935zm-23.769-4.992a8.84 8.84 0 0 0 2.406 2.694 8.85 8.85 0 0 0 3.282 1.508c3.212.709 4.818-2.248 3.935-5.219-.79-2.677-3.426-6.277-6.692-5.661a4.47 4.47 0 0 0-1.909.903 4.46 4.46 0 0 0-1.282 1.679c-.287.654-.413 1.367-.368 2.08a4.47 4.47 0 0 0 .628 2.017z" class="L"/><path d="M398.267 58.242c-5.006 2.288-6.772 22.176-.482 25.12s9.957-29.47.482-25.12z" class="G"/><path d="M424.27 70.835c-1.205 9.984-1.339 15.859-6.692 20.971-1.659 1.697-3.754 2.902-6.055 3.482s-4.717.514-6.982-.192-4.291-2.025-5.854-3.81-2.603-3.967-3.004-6.306c-1.619-8.967.616-23.782 10.627-27.757 2.103-.928 4.416-1.276 6.699-1.009a12.89 12.89 0 0 1 10.42 7.896 12.89 12.89 0 0 1 .841 6.723z" class="C"/><path d="M407.822 63.407c7.414-1.887 12.861-3.172 10.907 2.998-2.583 8.244-5.688 16.22-1.526 16.582 2.543.227 13.785-4.537 12.353-9.368-1.245-4.202 4.015-5.353 4.952-7.481 3.466-7.709-6.451-6.691-4.685-11.376s-8.029-12.232-13.383-8.471c-8.712 6.076-23.661 5.982-15.805-4.015 5.634-7.133-4.416-5.674-4.416-5.674s6.075 3.6-4.149 9.167c-10.814 5.942-.897 21.908 15.752 17.639z" class="G"/><path d="M428.204 81.836a10.37 10.37 0 0 1-6.169 4.202c-3.306.709-4.577-2.248-3.333-5.219 1.111-2.677 4.162-6.277 7.321-5.661s3.881 4.055 2.181 6.678z" class="C"/><path d="M379.222 197.613s-9.047 80.968-9.756 111.695c-.723 31.959 30.661 131.677 30.661 131.677l16.059-6.692s-18.736-91.112-16.059-122.495c2.837-34.221 14.56-114.131 14.56-114.131l-35.465-.054z" class="B"/><path d="M401.706 219.842c-7.214 14.963-2.356 44.553 1.552 62.085l4.925-38.249c-.16-19.111-1.646-33.873-6.477-23.836z" class="F I"/><g class="B"><use xlink:href="#D"/><path d="M398.347 197.613s6.919 77.006 11.496 105.847c5.032 31.597 24.758 136.829 24.758 136.829h18.456l-13.142-133.965-6.799-108.711h-34.769z"/><path d="M453.338 435.484c.08 0 .615 5.153.615 5.153h-20.288l-1.446-5.916 21.119.763z"/></g><path d="M446.271 429.382c-.042 0-.082-.014-.114-.041s-.053-.065-.06-.107c-.107-.936-10.077-93.681-11.951-121.786l-6.169-98.794a.16.16 0 0 1 .008-.065c.007-.021.019-.041.034-.057s.033-.03.054-.038.042-.014.064-.014c.044 0 .087.017.119.046s.052.071.055.115c0 .682 4.136 68.254 6.17 98.794 1.873 28.104 11.844 120.782 11.938 121.786a.19.19 0 0 1-.003.067.18.18 0 0 1-.029.059c-.014.018-.032.033-.052.043a.14.14 0 0 1-.064.018v-.026z" class="F I"/><path d="M408.959 73.619c0 .816-.508 1.472-1.044 1.472s-.923-.656-.87-1.472.509-1.472 1.044-1.472.924.669.87 1.472zm-9.18 0c0 .816-.522 1.472-1.044 1.472s-.924-.656-.884-1.472.522-1.472 1.058-1.472.923.669.87 1.472z" class="G"/><path d="M402.669 74.033a31.2 31.2 0 0 1-4.282 6.946c1.338 1.338 3.841.723 3.841.723l.441-7.669z" fill="#df5753"/><path d="M402.91 85.115c-.031 0-.062-.006-.09-.019s-.054-.03-.076-.053-.038-.049-.048-.078-.015-.06-.013-.091a.25.25 0 0 1 .079-.171c.047-.045.11-.07.175-.07a6.85 6.85 0 0 0 2.962-.651 6.86 6.86 0 0 0 2.391-1.865c.046-.041.106-.063.167-.063s.121.022.168.063.067.105.067.167-.024.122-.067.167a7.32 7.32 0 0 1-2.556 1.98c-.989.461-2.068.694-3.159.684zm7.682-13.959a.45.45 0 0 1-.207.05.46.46 0 0 1-.208-.05c-.5-.324-1.07-.525-1.663-.588a3.8 3.8 0 0 0-1.749.226.46.46 0 0 1-.175.047.45.45 0 0 1-.334-.116.46.46 0 0 1-.107-.145.49.49 0 0 1-.003-.373c.047-.12.14-.217.257-.27a4.7 4.7 0 0 1 4.323.401c.051.035.095.08.129.132a.46.46 0 0 1 .068.171.44.44 0 0 1-.003.184c-.013.061-.038.118-.074.169a.53.53 0 0 1-.254.161zm-14.36-2.677c-.071-.017-.136-.054-.187-.107a.46.46 0 0 1-.104-.153.47.47 0 0 1-.037-.181.47.47 0 0 1 .037-.181.46.46 0 0 1 .104-.153 5.01 5.01 0 0 1 1.867-1.312c.715-.288 1.486-.407 2.255-.347a.46.46 0 0 1 .173.065.45.45 0 0 1 .133.128.44.44 0 0 1 .071.171.46.46 0 0 1-.002.185.52.52 0 0 1-.562.401 4.02 4.02 0 0 0-3.253 1.338.49.49 0 0 1-.226.143.5.5 0 0 1-.269.004z" class="G"/><path d="M446.579 123.176l-13.918-3.707s-13.651 33.605-18.482 35.787c-6.558 2.997-23.166 13.383-30.233 18.294-.388 1.673-.08 6.103.803 7.321 12.045-2.195 35.104-11.068 39.922-15.578 10.988-10.292 21.908-42.117 21.908-42.117z" class="C"/><g class="B"><path d="M436.863 454.515a2.93 2.93 0 0 1-1.913-.522c-.173-.156-.302-.353-.374-.574s-.087-.456-.041-.684c.008-.142.055-.279.135-.397a.79.79 0 0 1 .32-.272c1.124-.575 4.269 1.419 4.63 1.646.04.025.071.061.088.105s.019.091.006.136-.035.09-.067.125-.075.061-.12.076a12.74 12.74 0 0 1-2.664.361zm-1.338-2.088c-.101-.022-.206-.022-.308 0-.051.026-.094.067-.122.117s-.042.107-.038.164c-.036.156-.03.318.017.471s.133.291.25.399c.522.469 1.834.522 3.56.188a8.88 8.88 0 0 0-3.399-1.339h.04z"/><path d="M439.459 454.154c-.034.011-.072.011-.107 0-1.003-.562-2.89-2.771-2.609-3.895.042-.178.142-.337.285-.451a.82.82 0 0 1 .504-.178c.18-.024.362-.009.536.044a1.24 1.24 0 0 1 .468.264c1.111.95 1.178 3.868 1.178 4.015.006.044-.002.089-.024.128s-.056.069-.097.086c-.045.009-.091.005-.134-.013zm-1.793-4.082h-.094c-.307 0-.348.174-.361.241-.161.656 1.03 2.328 2.021 3.118a5.54 5.54 0 0 0-1.004-3.158.81.81 0 0 0-.562-.201zm-36.335 2.77c-.819.286-1.71.286-2.529 0a1.26 1.26 0 0 1-.458-.424c-.115-.178-.183-.382-.198-.593a.79.79 0 0 1 .281-.709c1.071-.964 5.447 0 5.942.187.047.012.089.04.118.079a.22.22 0 0 1 .043.135c.002.05-.011.1-.037.143a.26.26 0 0 1-.11.098c-.986.445-2.007.808-3.052 1.084zm-2.181-1.592c-.153.03-.296.099-.415.2-.043.032-.075.076-.094.125s-.024.104-.013.156a.84.84 0 0 0 .127.396c.075.119.178.218.301.287.709.375 2.355.08 4.483-.816a13.13 13.13 0 0 0-4.389-.348z"/><path d="M404.342 451.758h-.107c-1.338-.241-4.015-1.78-4.095-2.931 0-.267.121-.642.763-.856.217-.077.447-.11.677-.096a1.69 1.69 0 0 1 .661.176c1.446.709 2.208 3.279 2.249 3.399.009.041.008.083-.004.123a.24.24 0 0 1-.063.105c-.02.033-.048.06-.081.08zm-3.171-3.386h-.134c-.415.148-.415.322-.415.375 0 .696 1.94 1.967 3.292 2.396-.311-1.075-.97-2.017-1.873-2.677a1.23 1.23 0 0 0-.87-.094z"/></g><path d="M385.084 172.761l-13.959 6.424-1.619 4.015 5.152 3.466s9.636-1.044 12.38-7.24l-1.954-6.665z" class="C"/><g class="G"><path d="M385.673 181.098a18.81 18.81 0 0 0-2.596-7.574l2.208-1.66c1.661 2.661 2.721 5.653 3.105 8.766l-2.717.468z"/><path d="M388.055 174.661c.295.464.44 1.008.415 1.557a2.68 2.68 0 0 1-.554 1.514c-.336.435-.798.757-1.323.92a2.68 2.68 0 0 1-2.928-.936 2.67 2.67 0 0 1-.117-3.071c.298-.462.732-.821 1.241-1.028a2.44 2.44 0 0 1 3.266 1.044z"/></g><path d="M361.69 184.377l1.861 1.874 12.526-5.353-4.951-1.713-9.436 5.192z" class="C"/><g class="F"><use xlink:href="#D" class="I"/><path d="M453.338 435.484c.08 0 .615 5.153.615 5.153h-20.288l-1.446-5.916 21.119.763z" class="I"/></g><use xlink:href="#E" class="B"/><use xlink:href="#E" class="F I"/><path d="M252.725.386h-8.552v1.378h8.552V.386zm110.703 54.559l-1.035 22.969 1.377.062 1.035-22.969-1.377-.062zm-2.661-48.376H202.846l-14.694 328.85h157.92l14.695-328.85z" class="B"/><path opacity=".56" d="M356.056 11.093h-157.92l-14.695 328.849h157.92l14.695-328.849z" class="J"/><path opacity=".07" d="M351.345 15.603h-157.92l-14.708 328.849h157.92l14.708-328.849z" class="B"/><path d="M333.372 159.03H198.577l-1.124 25.16h134.795l1.124-25.16z" class="E"/><path d="M272.706 140.668h-73.312l-.496 11.255h73.313l.495-11.255z" class="B"/><path d="M330.334 226.935H195.539l-1.124 25.161H329.21l1.124-25.161z" class="E"/><path opacity=".47" d="M305.616 286.075h-90.644l-1.352 30.152h90.644l1.352-30.152z" class="B"/><path d="M299.553 320.912h-90.644c-.039.01-.081.01-.12 0a.18.18 0 0 1 0-.121l1.338-30.165c0-.021.004-.041.012-.06s.021-.036.036-.05a.15.15 0 0 1 .052-.03c.02-.007.04-.01.061-.008h90.643c.017-.008.035-.012.054-.012s.037.004.053.012c.01.017.015.035.015.054s-.005.037-.015.053l-1.311 30.233c-.016.031-.041.057-.073.074s-.066.023-.101.02zm-90.483-.322h90.322l1.339-29.844h-90.323l-1.338 29.844z" class="E"/><path d="M256.874 208.574h-60.518l-.496 11.268h60.505l.509-11.268z" class="B"/><path d="M303.889 77.754c-.346 7.322-2.95 14.358-7.455 20.142a35.98 35.98 0 0 1-12.543 10.367c-4.919 2.452-10.333 3.744-15.829 3.778-4.441.034-8.842-.841-12.931-2.573a32.52 32.52 0 0 1-10.849-7.494c-3.066-3.212-5.443-7.018-6.983-11.183s-2.211-8.602-1.972-13.037c.471-9.202 4.439-17.877 11.094-24.25s15.492-9.964 24.706-10.037c4.444-.041 8.85.829 12.944 2.557a32.5 32.5 0 0 1 10.862 7.491c3.071 3.213 5.45 7.022 6.99 11.191s2.209 8.61 1.966 13.048z" class="E"/><path d="M307.114 50.64c-.087 1.947-.779 3.818-1.98 5.353a9.6 9.6 0 0 1-3.339 2.754c-1.308.652-2.748.996-4.209 1.007-1.416.009-2.813-.33-4.068-.985s-2.331-1.608-3.133-2.776a8.85 8.85 0 0 1-1.498-5.353c.129-2.443 1.185-4.745 2.954-6.436s4.114-2.644 6.561-2.664a8.65 8.65 0 0 1 6.324 2.666c.816.853 1.449 1.863 1.86 2.97s.591 2.285.528 3.464z" class="B"/><path d="M213.098 171.61a4.27 4.27 0 0 1-1.318 2.837c-.782.745-1.818 1.166-2.898 1.177-.522.007-1.039-.094-1.52-.296a3.82 3.82 0 0 1-1.277-.876c-.361-.376-.641-.823-.823-1.312a3.8 3.8 0 0 1-.234-1.53c.058-1.081.527-2.099 1.31-2.845a4.24 4.24 0 0 1 2.905-1.17 3.82 3.82 0 0 1 1.518.3c.48.202.914.5 1.275.876s.641.822.824 1.31a3.83 3.83 0 0 1 .238 1.529zm18.041 0a4.26 4.26 0 0 1-1.314 2.841c-.783.745-1.821 1.165-2.902 1.174-.521.004-1.036-.098-1.516-.301a3.82 3.82 0 0 1-1.272-.877 3.81 3.81 0 0 1-.82-1.31 3.82 3.82 0 0 1-.233-1.527 4.24 4.24 0 0 1 1.306-2.84c.78-.746 1.816-1.167 2.896-1.175a3.81 3.81 0 0 1 1.52.296 3.82 3.82 0 0 1 1.277.876 3.83 3.83 0 0 1 .824 1.312 3.84 3.84 0 0 1 .234 1.531zm18.053 0c-.061 1.079-.531 2.095-1.314 2.841a4.26 4.26 0 0 1-2.901 1.174c-.521.004-1.038-.098-1.518-.301a3.84 3.84 0 0 1-1.275-.876c-.361-.376-.641-.822-.824-1.31s-.263-1.008-.238-1.528c.061-1.08.531-2.096 1.314-2.841a4.26 4.26 0 0 1 2.902-1.174 3.81 3.81 0 0 1 1.52.296 3.82 3.82 0 0 1 1.277.876c.361.377.641.823.823 1.312s.262 1.01.234 1.531zm-39.132 67.906a4.27 4.27 0 0 1-4.216 4.014 3.8 3.8 0 0 1-1.517-.3c-.481-.202-.914-.5-1.275-.876s-.641-.822-.824-1.31a3.81 3.81 0 0 1-.238-1.528c.061-1.08.531-2.096 1.314-2.842a4.25 4.25 0 0 1 2.902-1.173c.521-.005 1.037.098 1.517.3s.914.5 1.275.876.641.822.824 1.31a3.83 3.83 0 0 1 .238 1.529zm18.04 0a4.25 4.25 0 0 1-4.202 4.014c-.521.007-1.039-.094-1.52-.296a3.83 3.83 0 0 1-1.277-.876 3.8 3.8 0 0 1-1.057-2.842c.061-1.08.531-2.096 1.314-2.841a4.25 4.25 0 0 1 2.902-1.174 3.79 3.79 0 0 1 1.515.3 3.81 3.81 0 0 1 1.273.877c.359.376.639.822.82 1.31s.26 1.008.232 1.528zm18.095-.001c-.062 1.08-.531 2.096-1.314 2.841a4.26 4.26 0 0 1-2.902 1.174c-.521.003-1.036-.101-1.515-.304s-.913-.501-1.273-.877a3.85 3.85 0 0 1-.824-1.307 3.84 3.84 0 0 1-.242-1.527 4.27 4.27 0 0 1 1.317-2.837c.782-.745 1.818-1.166 2.898-1.177.522-.007 1.039.094 1.52.296a3.82 3.82 0 0 1 2.101 2.188c.181.489.261 1.01.234 1.53zm18.013.001a4.27 4.27 0 0 1-1.317 2.837c-.782.745-1.818 1.166-2.898 1.177-.521.003-1.036-.101-1.516-.304s-.912-.501-1.273-.876-.64-.821-.824-1.308-.265-1.006-.242-1.526a4.27 4.27 0 0 1 1.318-2.838c.782-.745 1.818-1.166 2.898-1.177.521-.005 1.037.098 1.518.3a3.81 3.81 0 0 1 1.274.876 3.82 3.82 0 0 1 .824 1.31 3.81 3.81 0 0 1 .238 1.529zm18.121 0a4.27 4.27 0 0 1-1.318 2.837c-.782.745-1.818 1.166-2.898 1.177-.522.007-1.039-.094-1.52-.296a3.82 3.82 0 0 1-1.277-.876c-.361-.376-.641-.823-.823-1.312a3.8 3.8 0 0 1-.234-1.53c.061-1.08.531-2.096 1.314-2.842a4.25 4.25 0 0 1 2.901-1.173 3.82 3.82 0 0 1 1.518.3c.48.202.914.5 1.275.876s.641.822.824 1.31a3.83 3.83 0 0 1 .238 1.529z" class="G"/><g class="B"><use xlink:href="#F"/><use xlink:href="#G"/></g><g class="E"><use xlink:href="#F" opacity=".1"/><use xlink:href="#G" opacity=".1"/></g><g class="C"><path d="M99.529 190.252l-3.774 8.82-3.386 9.087a115.41 115.41 0 0 0-4.791 18.469l-.294 1.967a2.88 2.88 0 0 0 .094 1.004 10.43 10.43 0 0 0 1.472 3.104c1.719 2.451 3.712 4.696 5.942 6.692 2.351 2.187 4.817 4.246 7.388 6.17l7.936 5.728-2.503 4.697a94.88 94.88 0 0 1-18-10.318 43.37 43.37 0 0 1-8.03-7.602c-1.388-1.706-2.47-3.639-3.199-5.715-.424-1.296-.641-2.651-.642-4.014v-1.018-.655l.134-1.339c.767-6.972 2.233-13.85 4.376-20.529 1.044-3.293 2.155-6.571 3.426-9.77s2.583-6.33 4.202-9.582l9.649 4.804z"/><path d="M108.228 250.463l9.462-4.791-2.449 10.385s-6.491 1.82-9.502-1.338l2.489-4.256z"/><path d="M126.349 247.372l-2.516 8.591-8.592.094 2.449-10.385 8.659 1.7z"/></g><path d="M139.705 140.146a26.79 26.79 0 0 0 2.101 5.353 2.18 2.18 0 0 1-.97.635 2.19 2.19 0 0 1-1.158.048l.027-6.036z" fill="#df5753"/><g class="G"><path d="M139.424 140.226c.554 0 1.004-.689 1.004-1.539s-.45-1.539-1.004-1.539-1.004.689-1.004 1.539.45 1.539 1.004 1.539z"/><path d="M139.13 137.202l2.034-.576s-.99 1.579-2.034.576z"/></g><g class="C"><path d="M113.568 149.969c1.218 6.223 2.436 17.639-1.927 21.801 0 0 1.713 6.317 13.289 6.317 12.727 0 6.076-6.317 6.076-6.317-6.946-1.659-6.772-6.812-5.554-11.656l-11.884-10.145z"/><path d="M110.182 135.783c.643 10.399.696 14.815 5.942 20.155 7.91 8.03 20.543 4.979 23.019-5.353 2.235-9.368.817-24.786-9.368-28.921a14.22 14.22 0 0 0-7.07-.975c-2.402.282-4.692 1.172-6.653 2.586a14.2 14.2 0 0 0-4.557 5.493c-1.027 2.188-1.479 4.603-1.313 7.015z"/></g><path d="M111.212 124.086c-5.219 1.901-12.178.482-9.448 16.582 2.891 17.05-1.553 22.658-1.553 22.658s19.794 4.215 40.003-.255c0 0-6.17-10.786-4.444-18.736 2.209-10.037.469-13.745.469-13.745s-17.693-9.18-25.027-6.504z" class="G"/><path d="M133.294 141.203c.006 1.978.572 3.913 1.633 5.581 1.419 2.168 3.092 1.338 3.507-.963.374-2.021.093-5.595-1.713-6.986s-3.4-.027-3.427 2.368z" class="C"/><path d="M106.676 125.839c-1.499-4.215 5.647-10.706 20.77-8.029s15.779 15.27 15.779 15.27l-3.051-3.64.134 3.827-15.538 2.985-18.094-10.413z" class="G"/><use xlink:href="#H" class="B"/><use xlink:href="#H" opacity=".6" class="F"/><path d="M121.411 406.282l8.632 5.996 14.44-19.579-8.632-5.983-14.44 19.566zm-20.129-.388l9.114 5.193 12.781-20.704-9.114-5.192-12.781 20.703z" class="C"/><path d="M144.47 392.699l-7.441 10.09-8.633-5.982 7.441-10.091 8.633 5.983zm-30.42-7.508l9.127 5.206-6.584 10.666-9.128-5.206 6.585-10.666z" class="L"/><use xlink:href="#I" class="B"/><g class="F"><use xlink:href="#I" opacity=".6"/><path opacity=".4" d="M145.219 265.117l-4.898-4.871c0 .388 9.488 58.966 12.152 75.427a99.84 99.84 0 0 0 3.6-14.721c3.131-19.928-3.413-40.284-10.854-55.835z"/></g><use xlink:href="#J" class="B"/><use xlink:href="#J" opacity=".6" class="F"/><path d="M93.533 174.153c-4.336 1.03-8.498 16.795-8.498 16.795l16.957 11.323s5.647-12.474 3.667-17.934c-2.048-5.688-6.679-11.483-12.126-10.184z" class="B"/><path d="M96.853 184.31l-1.178 13.745 6.303 4.229c1.741-3.919 3.029-8.022 3.841-12.232l-8.966-5.742z" class="F I"/><path d="M148.752 174.46s5.006 1.753-5.018 63.369h-42.639c.723-17.398.736-28.104-7.561-63.677 5.97-1.23 12.022-2.026 18.107-2.382 6.447-.462 12.919-.462 19.365 0 8.325.763 17.746 2.69 17.746 2.69z" class="B"/><path d="M153.088 184.31l3.052 8.325 3.171 8.431 3.279 8.405.83 2.101.428 1.044.201.521v.081c-.245-.345-.565-.629-.937-.83a3.8 3.8 0 0 0-1.74-.522 3.49 3.49 0 0 0-1.485.281c-.616.281-.616.402-.602.388a1.59 1.59 0 0 0 .294-.308c.741-.972 1.382-2.017 1.914-3.118l1.833-3.868 3.346-8.244 3.118-8.471 3.052-8.538 5.152 1.338c-1.017 6.103-2.328 12.045-3.908 18.094a121.05 121.05 0 0 1-2.676 9.007 68.55 68.55 0 0 1-1.713 4.55c-.67 1.67-1.494 3.274-2.463 4.791a12.28 12.28 0 0 1-1.178 1.445c-.683.739-1.512 1.326-2.435 1.727a6.01 6.01 0 0 1-2.597.482c-.997-.038-1.969-.328-2.823-.844-1.009-.629-1.845-1.498-2.436-2.529a13.38 13.38 0 0 1-.495-.95l-.255-.509-.508-1.044-1.017-2.074c-1.339-2.784-2.677-5.594-3.841-8.418l-3.547-8.565c-1.151-2.877-2.181-5.755-3.158-8.86l10.144-3.319z" class="C"/><path d="M148.752 174.46c5.126 1.218 10.894 16.368 10.894 16.368l-15.243 12.968s-9.864-16.515-7.87-21.962c2.075-5.674 5.528-8.966 12.219-7.374z" class="B"/><g class="C"><path d="M175.264 175.197l5.353-4.47 3.721 5.794-2.744 4.832s-4.362 4.015-8.217 1.967a6.92 6.92 0 0 1 1.887-8.123z"/><path d="M190.28 170.74l-.402 1.459-8.471 1.418-.83-2.89 9.703.013z"/></g><path d="M142.342 402.522l-15.284-9.877 2.744-4.764 17.17 10.559-4.63 4.082z" class="B"/><g class="G"><path d="M116.379 410.391c-1.341-.164-2.63-.621-3.774-1.338-.048-.017-.089-.048-.118-.088s-.044-.09-.044-.14.015-.099.044-.139.07-.072.118-.088c.414-.134 4.015-1.245 5.058-.389.118.098.207.225.259.369s.064.298.036.448c-.019.241-.099.473-.232.674s-.316.366-.531.477c-.251.137-.531.21-.816.214zm-3.012-1.472c1.673.856 3.012 1.164 3.654.843.14-.078.258-.19.342-.325a.95.95 0 0 0 .14-.451c0-.214 0-.308-.121-.362-.562-.455-2.569-.107-4.041.295h.026z"/><path d="M112.698 409.146c-.07-.001-.138-.029-.187-.08-.02-.037-.031-.078-.031-.12s.011-.084.031-.121c0-.12.87-3.024 2.235-3.68a1.33 1.33 0 0 1 .555-.121c.192 0 .381.041.556.121.188.059.35.18.462.342a.89.89 0 0 1 .153.555c-.093 1.204-2.543 2.863-3.667 3.145l-.107-.041zm2.597-3.653a.92.92 0 0 0-.375.093c-.83.402-1.513 1.968-1.847 2.918 1.178-.495 2.797-1.807 2.851-2.543 0-.12-.001-.267-.308-.401a.99.99 0 0 0-.321-.107v.04zm20.181 10.679c-1.512 0-3.613-1.94-4.764-3.131-.03-.041-.045-.09-.045-.141s.015-.099.045-.14.064-.079.108-.102.095-.035.146-.032c.535 0 5.179.696 5.835 2.007a.77.77 0 0 1 0 .777c-.098.204-.247.38-.432.511s-.4.213-.625.238l-.268.013zm-3.881-2.944c1.686 1.633 3.172 2.543 4.015 2.436.148-.019.288-.075.41-.161s.219-.201.286-.334c.03-.046.046-.1.046-.154a.28.28 0 0 0-.046-.154c-.348-.723-2.824-1.338-4.711-1.633z"/><path d="M131.742 413.161a4.34 4.34 0 0 1-.896-.067c-.042-.006-.081-.023-.113-.048s-.059-.06-.075-.099a.28.28 0 0 1-.03-.127.28.28 0 0 1 .03-.127c.081-.094 1.887-2.275 3.6-2.423.485-.037.966.117 1.339.429.522.455.495.856.361 1.111-.335.91-2.65 1.351-4.216 1.351zm-.348-.495c1.499.08 3.895-.415 4.203-1.071 0 0 .107-.214-.241-.508a1.33 1.33 0 0 0-.475-.266c-.175-.056-.36-.074-.542-.055a5.87 5.87 0 0 0-2.945 1.913v-.013z"/></g><g class="B"><path d="M113.059 407.701l-11.348-3.212c-.196-.059-.407-.044-.592.042a.83.83 0 0 0-.412.426l-3.828 8.606c-.09.22-.132.457-.124.695s.067.471.172.685.254.403.437.555a1.69 1.69 0 0 0 .626.326c4.015 1.044 5.942 1.339 10.934 2.771 3.078.856 7.468 2.449 11.71 3.653s5.661-2.931 4.015-3.814c-7.441-3.934-8.03-6.691-10.064-9.636-.364-.533-.904-.921-1.526-1.097z"/><path d="M131.019 411.475l-9.689-6.692a.83.83 0 0 0-1.097.107l-6.424 6.906a1.67 1.67 0 0 0-.343.615c-.069.228-.089.467-.059.702a1.69 1.69 0 0 0 .235.664c.125.202.291.375.488.508 3.413 2.289 5.179 3.212 9.448 6.17 2.677 1.82 7.856 5.862 11.47 8.378s6.303-.937 5.018-2.302c-5.754-6.143-7.012-9.997-7.963-13.49a2.77 2.77 0 0 0-1.084-1.566zm-7.855-12.446l-17.465-8.686 1.806-4.738 18.656 9.155-2.997 4.269z"/><use xlink:href="#K"/></g><use xlink:href="#K" opacity=".4" class="E"/><path d="M107.425 240.158h-1.164c-.228 0-.402-.12-.388-.268l.549-4.965c0-.134.214-.254.441-.254h1.164c.228 0 .402.12.389.254l-.549 4.965c-.014.148-.214.268-.442.268zm27.302 0h-1.151c-.228 0-.402-.12-.388-.268l.535-4.965c0-.134.228-.254.455-.254h1.151c.228 0 .415.12.388.254l-.535 4.965c-.067.148-.214.268-.455.268z" class="B"/><path d="M106.408 466.801c19.801 0 35.853-1.163 35.853-2.597s-16.052-2.596-35.853-2.596-35.853 1.163-35.853 2.596 16.052 2.597 35.853 2.597z" style="mix-blend-mode:multiply" class="H"/><path d="M128.249 460.537c-6.343-1.847-13.383-4.215-17.638-6.691-.121-.081-.255-.121-.375-.188v-28.72h12.834c.974-.057 1.89-.485 2.559-1.195s1.043-1.65 1.043-2.626-.373-1.915-1.043-2.625-1.585-1.138-2.559-1.195h-12.767V286.383h-7.709v130.914H89.84c-.521-.031-1.042.045-1.533.223s-.939.454-1.319.812-.682.79-.889 1.269-.313.995-.313 1.516a3.83 3.83 0 0 0 .313 1.517c.207.479.509.911.889 1.269s.828.634 1.319.812 1.012.254 1.533.223h12.754v28.68c-.12 0-.241.107-.361.188-4.323 2.516-11.309 4.884-17.653 6.691a1.88 1.88 0 0 0-1.037.786c-.241.377-.338.828-.275 1.272s.283.849.619 1.144.768.46 1.215.465h42.625a1.87 1.87 0 0 0 1.728-1.602 1.88 1.88 0 0 0-.245-1.226c-.219-.368-.558-.65-.961-.799z" class="D"/><g class="B"><path d="M130.217 273.054H82.626c-3.829 0-6.933 3.103-6.933 6.932v14.146c0 3.829 3.104 6.933 6.933 6.933h47.591c3.828 0 6.932-3.104 6.932-6.933v-14.146c0-3.829-3.104-6.932-6.932-6.932z"/><use xlink:href="#L"/></g><use xlink:href="#L" opacity=".3" class="E"/><defs ><path id="B" d="M396.486 117.395c2.476 9.14-10.934 27.529-10.934 27.529l-17.572-9.85s3.293-7.562 7.308-15.257c6.437-12.433 18.375-12.848 21.198-2.422z"/><path id="C" d="M384.924 110.516s-13.678 30.433-5.702 87.097h53.894c.857-8.271-1.981-48.634 8.284-87.606-5.912-1.155-11.894-1.919-17.906-2.288a197.89 197.89 0 0 0-22.899 0c-5.287.537-10.525 1.472-15.671 2.797z"/><path id="D" d="M415.477 428.993c.08 0 1.9 5.113 1.9 5.113l-18.522 7.789-2.917-5.434 19.539-7.468z"/><path id="E" d="M450.206 119.322c3.681 11.871-10.706 28.104-10.706 28.104l-19.874-8.11a206.36 206.36 0 0 1 8.137-20.168c6.103-13.156 18.723-11.804 22.443.174z"/><path id="F" d="M279.59 75.968c5.602-5.478 5.899-14.258.664-19.611s-14.02-5.252-19.621.226-5.899 14.258-.664 19.611 14.019 5.252 19.621-.226z"/><path id="G" d="M296.435 97.895c-3.335 4.369-7.626 7.915-12.544 10.367a35.96 35.96 0 0 1-15.829 3.779 32.47 32.47 0 0 1-15.311-3.688c-4.724-2.467-8.768-6.058-11.776-10.458 6.504-6.477 16.796-10.706 28.198-10.706s21.333 4.229 27.262 10.706z"/><path id="H" d="M107.96 172.48a2.37 2.37 0 0 1 .427-1.733c.362-.5.905-.839 1.514-.944 4.711-.776 15.417-2.356 20.797-1.606 4.015.562 5.059 2.891 5.233 4.804.027.336-.017.673-.131.989s-.294.605-.529.845a2.37 2.37 0 0 1-.831.552 2.35 2.35 0 0 1-.985.157l-23.26-1.044a2.38 2.38 0 0 1-1.477-.612c-.407-.368-.675-.866-.758-1.408z"/><path id="I" d="M128.691 237.843s33.698 42.464 27.368 83.082c-5.099 32.802-34.675 77.22-34.675 77.22l-13.905-6.905a454.06 454.06 0 0 0 25.026-60.813 44.96 44.96 0 0 0 1.806-20.089 44.95 44.95 0 0 0-7.159-18.856c-17.077-24.933-44.432-10.091-26.03-53.639h27.569z"/><path id="J" d="M143.733 237.843s40.578 53.371 41.729 85.37c.95 26.767-44.164 78.626-44.164 78.626l-13.116-8.485s26.405-36.83 33.056-66.915c-2.569-29.818-56.905-88.596-56.905-88.596h39.4z"/><path id="K" d="M100.453 235.327l-1.473 3.854c-.147.294.201.602.696.602h44.272c.388 0 .709-.187.736-.428l.374-3.828c0-.254-.307-.481-.722-.481h-43.188c-.13-.013-.261.006-.382.055a.82.82 0 0 0-.313.226z"/><path id="L" d="M82.185 301.078v2.436c0 2.007 2.181 3.64 4.858 3.64h38.811c2.676 0 4.858-1.633 4.858-3.64v-2.436H82.185z"/></defs></svg>