<svg xmlns="http://www.w3.org/2000/svg" xmlns:xlink="http://www.w3.org/1999/xlink" width="340" height="253" fill="none" xmlns:v="https://vecta.io/nano"><style><![CDATA[.B{fill:#407bff}.C{fill:#000}.D{opacity:.3}.E{fill:#fff}.F{fill:#f5f5f5}.G{fill:#263238}.H{opacity:.5}.I{fill:#f0f0f0}.J{fill:#e58a7b}.K{fill:#e0e0e0}.L{fill:#fafafa}]]></style><path d="M339.87 222.547H0v.17h339.87v-.17zm-262.475 5.451H54.012v.17h23.383v-.17zm11.468 0h-6.988v.17h6.988v-.17zm34.476-3.337h-13.16v.17h13.16v-.17zm169.364 7.11h-29.358v.17h29.358v-.17zm10.359 0h-4.303v.17h4.303v-.17zm-32.288-5.969h-63.678v.17h63.678v-.17zM161.098 192.23H29.847a3.88 3.88 0 0 1-3.875-3.881V3.847A3.88 3.88 0 0 1 29.847 0h131.251c1.029 0 2.017.409 2.745 1.137a3.88 3.88 0 0 1 1.136 2.745V188.35a3.88 3.88 0 0 1-1.136 2.744c-.728.728-1.716 1.137-2.745 1.137zM29.847.136a3.71 3.71 0 0 0-3.705 3.711v184.502a3.71 3.71 0 0 0 3.705 3.711h131.251a3.71 3.71 0 0 0 3.711-3.711V3.847a3.71 3.71 0 0 0-1.089-2.622 3.72 3.72 0 0 0-2.622-1.089H29.847zM308.133 192.23H176.875a3.89 3.89 0 0 1-2.743-1.139c-.727-.727-1.137-1.713-1.138-2.742V3.847a3.89 3.89 0 0 1 1.15-2.721A3.89 3.89 0 0 1 176.875 0h131.258A3.88 3.88 0 0 1 312 3.847v184.502c0 1.027-.407 2.012-1.132 2.74a3.88 3.88 0 0 1-2.735 1.141zM176.875.136c-.984.002-1.927.393-2.622 1.089a3.72 3.72 0 0 0-1.089 2.622v184.502a3.71 3.71 0 0 0 3.711 3.711h131.258c.983-.001 1.926-.393 2.622-1.089s1.087-1.638 1.089-2.622V3.847c-.002-.984-.393-1.927-1.089-2.622a3.72 3.72 0 0 0-2.622-1.089H176.875z" fill="#e6e6e6"/><path d="M284.824 129.905h-47.629v92.642h47.629v-92.642z" class="F"/><path d="M284.824 129.905h-3.928v92.642h3.928v-92.642z" class="I"/><g class="K"><path d="M131.203 152.561h109.663v-20.012H131.203v20.012z"/><path d="M176.929 222.615h-47.017a.68.68 0 0 1-.481-.199c-.127-.128-.199-.301-.199-.481s.072-.353.199-.481a.68.68 0 0 1 .481-.199h47.017c6.798 0 7.702-1.985 7.702-9.856v-99.242a.68.68 0 0 1 .679-.68.68.68 0 0 1 .68.68v99.242c0 8.415-1.305 11.216-9.061 11.216z"/></g><path d="M135.418 137.212H283.75v-6.947H135.418v6.947z" class="I"/><path d="M136.492 129.905h-47.63v92.642h47.63v-92.642z" class="F"/><path d="M136.485 129.905h-3.929v92.642h3.929v-92.642z" class="I"/><path d="M102.763 222.547V57.574H61.89v164.973h40.873z" class="L"/><path d="M100.52 98.78V62.393H64.134V98.78h36.386z" class="F"/><path d="M74.269 61.904h16.137a3.77 3.77 0 0 1-3.773 3.773h-8.565c-.498.004-.991-.091-1.452-.279s-.88-.465-1.233-.816-.633-.768-.825-1.227a3.77 3.77 0 0 1-.29-1.45z" class="K"/><path d="M100.513 138.429v-36.387H64.126v36.387h36.387zm.007 39.649v-36.386H64.134v36.386h36.386zm0 39.656v-36.386H64.134v36.386h36.386z" class="F"/><path d="M74.269 101.56h16.137a3.78 3.78 0 0 1-1.107 2.665 3.77 3.77 0 0 1-2.666 1.107h-8.565a3.78 3.78 0 0 1-1.451-.281 3.77 3.77 0 0 1-1.232-.816 3.79 3.79 0 0 1-.825-1.226 3.78 3.78 0 0 1-.291-1.449zm0 39.649h16.137c0 1.001-.398 1.96-1.105 2.668a3.77 3.77 0 0 1-2.668 1.105h-8.565c-.498.003-.991-.092-1.452-.28s-.88-.465-1.233-.816a3.77 3.77 0 0 1-1.114-2.677zm0 39.649h16.137a3.77 3.77 0 0 1-1.105 2.668c-.707.707-1.667 1.105-2.668 1.105h-8.565c-.498.004-.991-.091-1.452-.279a3.78 3.78 0 0 1-2.058-2.044 3.77 3.77 0 0 1-.29-1.45z" class="K"/><path d="M61.89 222.547V57.574H41.477v164.973H61.89zm117.827-92.642h-10.271l2.494-19.998h10.278l-2.501 19.998z" class="I"/><path d="M181.993 129.905h-10.278l2.502-19.998h10.271l-2.495 19.998z" class="F"/><path d="M204.03 129.905h-7.429l-1.421-2.264h7.423l1.427 2.264z" class="I"/><path d="M243.836 129.905h-44.965l-1.42-2.264h40.322l6.063 2.264z" class="L"/><g class="I"><path d="M147.136 124.168h3.249c1.522 0 2.981.604 4.057 1.68s1.68 2.535 1.68 4.057h-14.736a5.74 5.74 0 0 1 .438-2.199c.289-.697.713-1.33 1.247-1.863a5.72 5.72 0 0 1 4.065-1.675zm36.101-4.262h-10.271l1.251-9.999h10.271l-1.251 9.999z"/><path d="M145.464 117.513h72.732a1.01 1.01 0 0 0 .416-.089 1.02 1.02 0 0 0 .341-.252 1 1 0 0 0 .207-.371 1.01 1.01 0 0 0 .036-.423l-5.601-44.808c-.03-.244-.148-.468-.333-.631s-.421-.252-.667-.252h-72.711c-.143 0-.284.03-.414.089a1 1 0 0 0-.34.25 1.01 1.01 0 0 0-.208.368c-.042.136-.055.28-.038.421l5.601 44.816a1.01 1.01 0 0 0 .325.624 1 1 0 0 0 .654.259z"/></g><path d="M146.565 117.513h72.685a1.01 1.01 0 0 0 .756-.341c.095-.107.166-.234.207-.371a1.01 1.01 0 0 0 .036-.423l-5.601-44.808a1.01 1.01 0 0 0-.999-.884h-72.685c-.142 0-.283.03-.413.089a1.01 1.01 0 0 0-.341.25c-.094.107-.165.232-.207.368s-.055.28-.038.421l5.601 44.816c.03.244.148.468.332.631s.422.252.667.252z" class="F"/><path d="M217.904 115.032l-5.241-41.94c-.01-.068-.044-.131-.097-.176s-.119-.069-.188-.069h-69.789c-.04-.001-.08.006-.117.022a.28.28 0 0 0-.096.069c-.027.03-.046.065-.058.104s-.014.079-.008.118l5.241 41.947c.008.068.041.13.093.175s.117.07.186.07h69.795a.29.29 0 0 0 .116-.027.3.3 0 0 0 .095-.071c.026-.03.046-.065.057-.104s.016-.078.011-.118z" class="K"/><path d="M191.34 129.905h-16.735v-.211c0-.441.175-.865.487-1.177s.736-.488 1.178-.488h13.404c.442 0 .866.175 1.178.488s.488.736.488 1.177v.211z" class="L"/><path d="M176.555 129.905h-11.351v-.211c0-.441.175-.865.487-1.177s.736-.488 1.178-.488h8.021a1.66 1.66 0 0 1 1.665 1.665v.211z" class="I"/><path d="M79.162 38.942v-.034l.435-1.584a2.76 2.76 0 0 0 2.134 1.285h.183c1.135-.109 2.223-1.21 2.909-2.943.013-.031.02-.065.02-.099a.25.25 0 0 0-.02-.099c-.033-.062-.089-.108-.156-.129-.815-.206-1.664-.239-2.492-.095s-1.616.461-2.314.931l.265-1.516a3.01 3.01 0 0 0 .544.054c1.849 0 3.208-1.652 3.276-1.733.024-.03.041-.065.048-.103s.007-.076-.003-.114-.028-.071-.054-.1-.057-.051-.093-.065a3.4 3.4 0 0 0-2.78-.109c-.475.242-.859.63-1.094 1.108-.346-1.064-.98-2.011-1.83-2.738a6.07 6.07 0 0 0-2.989-1.381c-.034-.008-.07-.008-.104 0s-.066.024-.093.047-.052.046-.069.077a.22.22 0 0 0-.027.1c-.095 1.679-.041 3.739 1.217 4.717a2.87 2.87 0 0 0 1.822.557c.585-.014 1.165-.105 1.727-.272a27.36 27.36 0 0 1-.782 3.596 9.52 9.52 0 0 0-4.969-3.494.25.25 0 0 0-.185.029c-.056.033-.096.086-.114.148-.381 1.448-.183 2.624.564 3.399.38.342.825.603 1.309.769a3.79 3.79 0 0 0 1.505.196 8.43 8.43 0 0 0 1.631-.17l-1.026 2.889c-.754-.68-2.977-2.366-5.397-1.659-.065.021-.119.068-.15.129-.013.031-.02.065-.02.099s.007.067.02.099c.68 1.604 1.407 2.495 2.345 2.8a2.43 2.43 0 0 0 .775.122 4.42 4.42 0 0 0 2.039-.598L75.58 46.46a4.93 4.93 0 0 0-2.259-1.315c-.857-.227-1.761-.219-2.614.024-.058.012-.11.044-.145.092a.24.24 0 0 0-.045.166 2.95 2.95 0 0 0 1.761 2.365 2.84 2.84 0 0 0 1.135.231 3.36 3.36 0 0 0 1.55-.401l-1.4 2.434h-4.622l-2.413-4.575a4.44 4.44 0 0 0 1.19.184 3.23 3.23 0 0 0 3.168-4.031.24.24 0 0 0-.1-.135c-.048-.031-.107-.044-.165-.035-.944.092-1.852.41-2.647.927a5.91 5.91 0 0 0-1.921 2.043l-1.536-3.861c.588.335 1.248.526 1.924.557a2.31 2.31 0 0 0 .788-.129c1.359-.449 2.141-2.087 2.807-3.786.015-.031.023-.064.023-.099s-.008-.068-.023-.099-.038-.059-.065-.081a.25.25 0 0 0-.092-.048c-2.719-.761-4.955 1.856-5.649 2.794a33.36 33.36 0 0 1-.904-3.446 9.52 9.52 0 0 0 1.733.177c.578.042 1.159-.035 1.707-.227a4.23 4.23 0 0 0 1.475-.888c.822-.87 1.02-2.175.578-3.766-.008-.031-.022-.061-.041-.086a.24.24 0 0 0-.072-.063c-.028-.016-.059-.026-.091-.03a.22.22 0 0 0-.095.009c-2.169.677-4.058 2.045-5.377 3.895l-.102-.619c-.007-.053-.031-.103-.068-.143a2.98 2.98 0 0 0-1.543-1.869 3.71 3.71 0 0 0-1.54-.244c-.525.029-1.038.167-1.505.407-.036.015-.068.039-.094.068s-.045.064-.056.102-.008.075.002.112.027.07.053.099c.068.088 1.563 1.856 3.575 1.856a3.54 3.54 0 0 0 .646-.068l.319 1.727a6.56 6.56 0 0 0-2.566-.998 6.57 6.57 0 0 0-2.75.142c-.067.021-.123.067-.156.129-.013.032-.02.067-.02.102s.007.07.02.102c.782 1.89 1.992 3.086 3.242 3.188h.17c.632 0 1.489-.292 2.359-1.455.343 1.322.756 2.624 1.237 3.902-1.176-.557-3.82-1.516-5.71-.054-.026.019-.048.043-.064.07s-.027.058-.032.09-.002.064.006.095.023.06.043.085c1.223 1.665 2.352 2.474 3.46 2.474.918 0 1.795-.578 2.671-1.72l1.584 3.548c-1.176-.727-2.468-.612-3.99.347-.035.021-.064.051-.085.087a.23.23 0 0 0-.031.117c0 .041.005.08.023.116s.045.066.079.088c.907.654 1.978 1.042 3.093 1.122a2.72 2.72 0 0 0 1.611-.489l1.258 2.291h-2.1v1.196h.761l.632 6.335h9.306l.625-6.335h.768v-1.196h-4.18l1.686-2.998a.23.23 0 0 0 .041-.081l.483-.945a3.14 3.14 0 0 0 2.515 1.407 2.4 2.4 0 0 0 .313 0 3.02 3.02 0 0 0 1.518-.621 3.01 3.01 0 0 0 .969-1.323c.02-.054.02-.113 0-.166s-.059-.098-.109-.126a5.16 5.16 0 0 0-4.704-.19l1.033-2.359a.2.2 0 0 0 .048-.109l.279-.68c.809 1.02 1.611 1.523 2.447 1.523 1.013 0 2.039-.748 3.14-2.291.038-.052.055-.116.046-.18s-.042-.121-.093-.16c-1.733-1.298-4.078-.408-5.18.109l.619-1.862.02-.068zm194.413-2.868h-34.762v38.167h34.762V36.074z" class="K"/><path d="M269.286 37.637c-.029.007-.06.007-.089 0-.081-.054-8.293-4.935-10.876-4.935s-10.434 4.881-10.515 4.928a.17.17 0 0 1-.062.025c-.021.004-.044.003-.065-.002s-.043-.015-.06-.028a.16.16 0 0 1-.044-.049.17.17 0 0 1 .054-.231c.326-.204 7.987-4.983 10.692-4.983s10.74 4.758 11.08 4.983c.019.011.036.026.049.044s.023.038.028.06.006.044.002.066-.012.043-.025.061c-.019.026-.045.045-.075.056s-.063.013-.094.005z" fill="#ebebeb"/><path d="M277.334 36.074H241.43v38.167h35.904V36.074z" class="F"/><path d="M274.329 71.23V39.078h-29.888V71.23h29.888z" class="E"/><path d="M265.174 60.946c3.199-3.199 3.199-8.385 0-11.584s-8.385-3.199-11.584 0-3.199 8.385 0 11.584 8.385 3.199 11.584 0z" class="K"/><g fill="#e6e6e6"><path d="M258.688 176.222h30.466c2.796.003 5.481-1.092 7.477-3.048a10.67 10.67 0 0 0 3.202-7.413l1.142-55.779a7.78 7.78 0 0 0-.547-3.027c-.382-.962-.952-1.839-1.677-2.578a7.76 7.76 0 0 0-2.544-1.727 7.79 7.79 0 0 0-3.015-.608h-19.101c-1.911 0-3.755.703-5.18 1.976a7.77 7.77 0 0 0-2.548 4.924l-7.675 67.28z"/><path d="M275.315 176.222h-32.464a1.52 1.52 0 0 1-1.523-1.522v-.143c0-1.107.44-2.168 1.222-2.951s1.845-1.223 2.952-1.223h29.813v5.839z"/><path d="M272.752 223.308a.68.68 0 0 1-.679-.537l-9.517-45.869h-16.585l-9.517 45.869a.7.7 0 0 1-.297.44c-.154.101-.342.137-.522.1a.7.7 0 0 1-.44-.297c-.101-.154-.137-.342-.1-.522l9.638-46.406c.032-.155.118-.295.242-.395s.279-.152.438-.148h17.673a.68.68 0 0 1 .439.148c.124.1.209.24.241.395l9.632 46.406a.68.68 0 0 1-.523.802.51.51 0 0 1-.123.014z"/><path d="M262.413 223.308c-.045.007-.091.007-.136 0-.087-.018-.17-.053-.244-.103s-.138-.114-.187-.188-.083-.158-.1-.246-.017-.178.001-.265l9.639-46.406a.68.68 0 0 1 .241-.395c.124-.099.28-.152.439-.149h17.673a.68.68 0 0 1 .68.544l9.631 46.406c.019.089.019.181.002.271a.69.69 0 0 1-.102.25.7.7 0 0 1-.44.298c-.089.018-.181.019-.271.002s-.174-.052-.25-.103-.142-.114-.193-.19-.087-.16-.105-.249l-9.516-45.869h-16.6l-9.516 45.869a.68.68 0 0 1-.646.523z"/></g><path d="M175.7 252.195c72.788 0 131.795-3.445 131.795-7.694s-59.007-7.695-131.795-7.695-131.795 3.445-131.795 7.695 59.007 7.694 131.795 7.694z" class="F"/><g class="B"><path d="M187.33 238.22a.93.93 0 0 1-.904-.741l-12.915-63.596h-22.492l-12.915 63.596c-.062.227-.207.421-.407.544s-.439.166-.669.12a.93.93 0 0 1-.57-.371.92.92 0 0 1-.162-.66l13.064-64.337a.93.93 0 0 1 .904-.741h23.995a.92.92 0 0 1 .904.741l13.071 64.337a.92.92 0 0 1-.135.693c-.135.203-.346.345-.585.395l-.184.02z"/><path d="M151.23 238.22a.93.93 0 0 1-.904-.741l-12.915-63.596h-22.493l-12.915 63.596a.93.93 0 0 1-.125.354c-.066.108-.153.202-.256.275s-.22.124-.343.151-.252.026-.376.001-.241-.075-.345-.148a.93.93 0 0 1-.258-.272c-.066-.108-.11-.228-.128-.353a.93.93 0 0 1 .023-.375l13.071-64.337a.93.93 0 0 1 .32-.532.92.92 0 0 1 .584-.209h23.995c.212 0 .418.075.581.21a.91.91 0 0 1 .316.531l13.072 64.337c.048.24-.001.489-.136.693a.93.93 0 0 1-.585.395l-.183.02z"/><use xlink:href="#B"/><path d="M133.74 165.012h40.444c1.502 0 2.942.597 4.004 1.659a5.66 5.66 0 0 1 1.658 4.003v.198a2.04 2.04 0 0 1-2.039 2.039H133.74v-7.899z"/></g><g class="C D"><path d="M187.331 238.22a.92.92 0 0 1-.904-.741l-12.915-63.596h-22.493l-12.915 63.596c-.061.227-.207.421-.407.545s-.439.166-.669.119-.434-.179-.57-.371a.92.92 0 0 1-.162-.66l13.065-64.337c.043-.208.156-.395.321-.53a.93.93 0 0 1 .583-.211h23.994a.92.92 0 0 1 .584.209.93.93 0 0 1 .321.532l13.071 64.337c.048.24-.001.489-.136.693a.92.92 0 0 1-.585.395l-.183.02z" class="D"/><path d="M151.23 238.22a.93.93 0 0 1-.904-.741l-12.915-63.596h-22.493l-12.915 63.596c-.017.126-.06.246-.125.354s-.153.202-.256.275-.22.125-.343.151-.252.027-.376.001-.241-.075-.345-.147-.191-.166-.258-.273-.11-.228-.128-.353a.93.93 0 0 1 .023-.375l13.071-64.337a.93.93 0 0 1 .32-.532.92.92 0 0 1 .584-.209h23.995a.92.92 0 0 1 .581.21.91.91 0 0 1 .316.531l13.072 64.337c.048.24-.001.489-.136.693a.92.92 0 0 1-.585.395l-.183.02z" class="D"/><use xlink:href="#B" class="D"/><path d="M133.74 165.012h40.445c1.501 0 2.942.597 4.004 1.659s1.658 2.502 1.658 4.003v.198c0 .54-.215 1.059-.597 1.442a2.04 2.04 0 0 1-1.442.597H133.74v-7.899z" class="D"/></g><path d="M144.779 81.717s5.778 7.545 2.039 22.567-23.029 6.866-24.199-6.675c-1.359-15.96 16.559-4.955 19.713-19.148l2.447 3.256z" class="G"/><use xlink:href="#C" class="B"/><use xlink:href="#C" opacity=".8" class="E"/><path d="M172.261 110.674l.292 1.183.326 1.277.748 2.57 1.645 5.166 1.835 5.139.979 2.556.394 1.019c.079.175.182.337.306.483.968.978 2.147 1.723 3.446 2.175a31.74 31.74 0 0 0 4.895 1.523l5.295 1.012 5.404.68.061 3.657c-3.878.401-7.787.401-11.664 0-2.027-.209-4.031-.598-5.989-1.162a20.11 20.11 0 0 1-3.086-1.217 11.83 11.83 0 0 1-3.1-2.182 8.6 8.6 0 0 1-1.359-1.76c-.102-.164-.19-.347-.286-.517l-.176-.367-.313-.68-1.23-2.603c-.789-1.754-1.557-3.521-2.243-5.323s-1.36-3.616-1.931-5.438l-.802-2.827-.374-1.434c-.109-.517-.211-.945-.319-1.557l7.246-1.373z" class="J"/><use xlink:href="#D" class="B"/><use xlink:href="#D" class="E H"/><g class="B"><path opacity=".2" d="M168.903 105.97l-6.981 5.533c1.36 3.361 3.014 6.596 4.942 9.666l5.567-3.786-3.528-11.413z"/><use xlink:href="#E"/></g><use xlink:href="#E" class="E H"/><g class="J"><path d="M196.772 135.423l5.01-5.084.68 7.164s-3.759 2.542-6.356 1.176l.666-3.256z"/><path d="M207.696 129.584l.224 6.022-5.465 1.897-.66-7.165 5.901-.754zm-8.572 102.043h7.069l1.088-16.375h-7.069l-1.088 16.375zm-27.36 0h7.069l2.271-16.375h-7.07l-2.27 16.375z"/></g><path d="M179.276 230.804h-7.946a.56.56 0 0 0-.565.483l-.904 6.287a1.14 1.14 0 0 0 .289.881c.107.119.237.213.383.278a1.14 1.14 0 0 0 .463.099l7.593-.211c2.148 0 7.661.224 10.631.224s3.127-2.936 1.89-3.201c-5.54-1.197-8.789-2.835-10.658-4.405a1.82 1.82 0 0 0-1.176-.435zm27.468 0h-7.932a.57.57 0 0 0-.565.483l-.904 6.287a1.14 1.14 0 0 0 .051.471 1.15 1.15 0 0 0 .238.41c.107.118.237.213.383.278a1.14 1.14 0 0 0 .463.099l7.593-.211 9.564.224c2.971 0 3.127-2.936 1.89-3.201-5.54-1.197-7.722-2.835-9.585-4.405-.334-.283-.758-.437-1.196-.435zM164.315 72.173c2.542.163 3.833 12.915-3.623 12.174s3.623-12.174 3.623-12.174z" class="G"/><path d="M207.281 215.252l-.564 8.442h-7.07l.558-8.442h7.076zm-33.246 0h7.076l-1.176 8.442h-7.076l1.176-8.442z" fill="#cf6f64"/><path opacity=".2" d="M135.636 116.078l1.53 9.19 1.679-12.99-3.209 3.8z" class="B"/><path d="M146.247 86.482c.823 4.194 1.645 11.882-1.291 14.682 0 0 1.148 4.255 8.945 4.255 8.571 0 4.078-4.255 4.078-4.255-4.683-1.114-4.561-4.588-3.745-7.844l-7.987-6.838z" class="J"/><g class="G"><path d="M152.351 106.33l2.61-.938-.346-.714-2.264 1.652z"/><path d="M157.415 105.786l-2.454-.394.531-.795 1.923 1.189z"/></g><path d="M145.907 99.186l-1.774 1.727c-.053.054-.083.128-.083.204s.03.149.083.204l7.477 8.517c.356-2.023 1.439-3.846 3.046-5.125-6.186-2.339-7.797-4.759-8.348-5.438-.012-.04-.035-.075-.066-.103s-.068-.047-.109-.056a.24.24 0 0 0-.122.005c-.039.012-.076.035-.104.065zm10.686 1.305l2.202.599c.066.018.126.053.174.102a.4.4 0 0 1 .098.176 16.46 16.46 0 0 1-.34 8.436c-.312-1.156-1.359-3.922-3.235-5.207 2.039-1.407 1.216-3.222.924-3.909-.009-.025-.012-.053-.007-.08a.15.15 0 0 1 .036-.071c.018-.021.042-.036.068-.044s.053-.008.08-.002z" class="B"/><path d="M149.517 89.269l4.758 4.044a14.03 14.03 0 0 0-.401 2.311c-1.788-.258-4.242-2.216-4.432-4.078-.117-.757-.091-1.529.075-2.277z" fill="#cf6f64"/><path d="M145.792 75.429c-.809 6.967-1.305 9.904 1.55 14.064 4.282 6.26 13.023 5.73 15.899-.856 2.589-5.927 3.473-16.314-2.78-20.284a9.57 9.57 0 0 0-9.308-.553c-1.47.709-2.734 1.782-3.673 3.117s-1.519 2.888-1.688 4.512z" class="J"/><g class="G"><path d="M161.724 63.921c-11.521-4.547-20.174.585-21.962 7.878-2.807 11.324 6.159 12.12 6.159 12.12l1.121-2.896c1.611.972 6.118.544 4.758-7.865-.802-4.758 5.221 1.869 12.861 1.128 2.032-.197 4.812-7.307-2.937-10.366z"/><path d="M165.647 66.722c-1.516-2.332-4.616-4.33-11.039-5.275 0 0 3.337.755 4.418 3.195s8.449 4.887 6.621 2.08z"/></g><path d="M143.576 81.459c-.048.67.038 1.343.252 1.98a5.1 5.1 0 0 0 .991 1.732c1.19 1.36 2.753.523 3.243-1.108.435-1.475.346-3.949-1.244-4.697s-3.113.435-3.242 2.094z" class="J"/><g class="G"><path d="M166.571 145.646s47.405 4.412 46.943 25.966c-.483 22.432-5.282 50.451-5.282 50.451h-9.795l-1.121-45.795c-.143-11.501-45.951-13.805-45.951-13.805l-5.913-16.817h21.119z"/><path d="M158.986 145.646s30.635 10.162 31.41 22.738c1.421 23.151-8.755 53.699-8.755 53.699h-9.645l1.699-41.233c1.455-26.36-45.053-.367-35.842-35.183l21.133-.021zm-3.114-66.417c-.102.557.115 1.067.482 1.135s.741-.34.843-.897-.115-1.074-.482-1.135-.728.333-.843.897zm6.342 1.135c-.102.557.116 1.067.483 1.135s.747-.34.849-.897-.115-1.074-.482-1.135-.748.333-.85.897z"/><path d="M162.894 79.467l1.421-.149s-.85.931-1.421.149z"/></g><path d="M160.365 81.023a15.38 15.38 0 0 0 1.36 3.943 2.46 2.46 0 0 1-1.02.221c-.352 0-.699-.075-1.019-.221l.679-3.943z" fill="#df5753"/><path d="M157.347 86.781a4.8 4.8 0 0 1-3.521-2.549c-.011-.026-.012-.056-.002-.083s.03-.048.056-.06.057-.008.084.003.047.032.059.058a4.58 4.58 0 0 0 1.375 1.605c.577.42 1.245.699 1.949.815.028.007.053.023.07.047s.023.053.019.082c-.006.021-.017.04-.032.054s-.036.024-.057.027zm-2.963-10.06c-.03.001-.059-.004-.086-.016a.2.2 0 0 1-.071-.052c-.02-.023-.037-.042-.048-.068s-.017-.053-.017-.082.006-.056.017-.082a.21.21 0 0 1 .048-.068 3.2 3.2 0 0 1 2.815-.856c.053.016.098.051.126.099a.22.22 0 0 1 .023.159c-.006.027-.018.053-.035.076a.22.22 0 0 1-.061.057c-.024.015-.051.024-.079.028a.21.21 0 0 1-.083-.005 2.76 2.76 0 0 0-2.42.755c-.037.031-.082.05-.129.054zm11.297 1.115c-.042.001-.084-.01-.119-.033s-.063-.057-.078-.096a2.78 2.78 0 0 0-.76-1.059 2.79 2.79 0 0 0-1.157-.599.22.22 0 0 1-.138-.087c-.033-.046-.047-.102-.039-.158s.042-.107.09-.14.105-.046.162-.036c.498.115.961.349 1.349.682a3.17 3.17 0 0 1 .88 1.228.22.22 0 0 1-.108.285l-.082.014z" class="G"/><path d="M137.057 112.998l-1.876 6.172-1.754 6.206-1.427 6.118-.449 2.943-.088 1.319c0 .095 0 0-.068-.156a1.69 1.69 0 0 0-.34-.496c-.347-.3-.476-.245-.32-.198a3.19 3.19 0 0 0 .87.089 14.89 14.89 0 0 0 2.719-.347 50.75 50.75 0 0 0 5.975-1.706c4.018-1.36 8.096-3.018 12.066-4.711l1.753 3.202a95.24 95.24 0 0 1-11.779 6.58c-2.112.996-4.29 1.843-6.519 2.535-1.241.378-2.516.635-3.807.768a9.52 9.52 0 0 1-2.42-.061 6.15 6.15 0 0 1-1.543-.442 5.32 5.32 0 0 1-1.699-1.169 5.52 5.52 0 0 1-1.516-3.67c-.034-.68-.041-1.36 0-1.972a37.42 37.42 0 0 1 .32-3.609 77.63 77.63 0 0 1 1.264-6.797 148.69 148.69 0 0 1 1.672-6.546c.605-2.162 1.258-4.283 2.039-6.444l6.927 2.392z" class="J"/><g class="B"><path d="M181.695 231.994a8.31 8.31 0 0 1-1.856-.259c-.022-.004-.043-.015-.059-.031s-.028-.038-.032-.06-.002-.046.007-.068.024-.039.044-.051c.238-.157 2.358-1.53 3.167-1.17.085.039.158.1.211.176s.083.167.088.259c.034.151.028.308-.017.456a.88.88 0 0 1-.241.387c-.381.271-.846.399-1.312.361zm-1.529-.422c1.312.272 2.297.238 2.678-.115.083-.081.144-.181.177-.292a.68.68 0 0 0 .013-.341c-.002-.053-.02-.105-.05-.149s-.071-.08-.12-.102c-.516-.231-1.951.537-2.698.999z"/><path d="M179.867 231.742h-.061c-.019-.011-.035-.027-.046-.046s-.016-.041-.015-.063c0-.081 0-2.093.761-2.759.089-.086.197-.149.315-.186a.79.79 0 0 1 .365-.025.53.53 0 0 1 .523.421c.143.734-1.04 2.237-1.781 2.658h-.061zm1.196-2.868c-.149.001-.293.059-.401.163-.537.476-.645 1.821-.679 2.358.679-.489 1.59-1.726 1.475-2.277 0-.088-.068-.204-.313-.238l-.082-.006zm28.339 3.12a12.4 12.4 0 0 1-2.223-.252c-.024-.006-.046-.019-.063-.037s-.028-.04-.032-.065.001-.05.013-.072.032-.04.055-.05c.312-.163 3.106-1.591 3.956-1.128a.49.49 0 0 1 .181.17c.045.072.072.153.077.237a.87.87 0 0 1-.047.42c-.049.134-.131.254-.238.348a2.6 2.6 0 0 1-1.679.429zm-1.829-.422c.911.157 2.719.381 3.344-.176a.69.69 0 0 0 .175-.264c.036-.101.049-.208.036-.314 0-.046-.013-.091-.037-.131s-.058-.072-.099-.094c-.557-.299-2.433.497-3.419.979z"/><path d="M207.206 231.742c-.022.007-.046.007-.068 0a.14.14 0 0 1-.039-.048c-.009-.019-.015-.04-.015-.061 0-.081.17-1.964 1.04-2.719.122-.104.264-.181.417-.228s.314-.062.473-.044c.435.041.558.259.592.429.122.781-1.523 2.277-2.352 2.651l-.048.02zm1.679-2.868c-.223-.001-.439.081-.605.231-.639.53-.863 1.801-.931 2.311.891-.496 2.107-1.774 2.039-2.298 0-.054 0-.204-.374-.238l-.129-.006z"/></g><g class="J"><path d="M152.202 128.34l6.702-1.699-3.195 6.437s-4.533.197-6.029-2.332l2.522-2.406z"/><path d="M164.321 129.081l-2.963 5.248-5.649-1.251 3.195-6.437 5.417 2.44z"/></g><path d="M156.545 78.332l1.421-.15s-.877.931-1.421.15z" class="G"/><path d="M137.424 143.961l-.231 2.569c-.095.204.136.408.469.408h29.052c.258 0 .469-.129.489-.292l.259-2.57c0-.177-.211-.326-.49-.326h-29.079c-.09-.008-.18.008-.262.045s-.153.094-.207.166z" class="B"/><path d="M141.333 147.217h-.782c-.156 0-.272-.082-.265-.177l.367-3.344c0-.096.15-.177.306-.177h.754c.157 0 .272.081.265.177l-.367 3.344c.007.095-.129.177-.278.177zm23.192 0h-.782c-.156 0-.271-.082-.265-.177l.367-3.344c0-.096.15-.177.306-.177h.775c.156 0 .272.081.265.177l-.367 3.344c0 .095-.149.177-.299.177zm-11.596 0h-.782c-.156 0-.272-.082-.265-.177l.367-3.344c0-.096.15-.177.306-.177h.775c.156 0 .272.081.265.177l-.367 3.344c-.014.095-.143.177-.299.177z" class="G"/><use xlink:href="#F" class="B"/><use xlink:href="#F" class="E H"/><use xlink:href="#G" class="B"/><use xlink:href="#G" opacity=".6" class="E"/><use xlink:href="#G" x="-104.768" class="B"/><use xlink:href="#G" x="-104.768" opacity=".6" class="E"/><path d="M288.972 138.584h-4.459v105.19h4.459v-105.19z" class="B"/><path d="M288.972 138.584h-4.459v105.19h4.459v-105.19z" class="C D"/><path d="M182.824 146.476h107.528v-7.892H182.824v7.892z" class="B"/><path d="M182.824 146.476h107.528v-7.892H182.824v7.892z" class="C D"/><path d="M184.211 138.584h-4.46v105.19h4.46v-105.19z" class="B"/><path d="M184.211 138.584h-4.46v105.19h4.46v-105.19z" class="C D"/><path d="M182.565 163.748h104.177v-22.724H182.565v22.724z" class="B"/><path d="M182.565 163.748h104.177v-22.724H182.565v22.724z" class="C D"/><use xlink:href="#H" class="B"/><use xlink:href="#H" class="C D"/><path d="M291.351 169.621h-.68v13.139h.68v-13.139z" class="B"/><path d="M291.351 169.621h-.68v13.139h.68v-13.139z" class="C D"/><path d="M291.351 161.865h-.68v3.453h.68v-3.453z" class="B"/><path d="M291.351 161.865h-.68v3.453h.68v-3.453z" class="C D"/><path d="M241.566 107.18h-50.395l-7.301 29.759h50.389l7.307-29.759z" class="B"/><path opacity=".4" d="M241.566 107.18h-50.395l-7.301 29.759h50.389l7.307-29.759z" class="E"/><path d="M185.413 136.939l-.204 1.645h-19.773l.203-1.645h19.774z" class="B"/><path opacity=".4" d="M185.413 136.939l-.204 1.645h-19.773l.203-1.645h19.774z" class="E"/><path d="M235.809 136.939l-.204 1.645h-50.396l.204-1.645h50.396z" class="B"/><path d="M235.809 136.939l-.204 1.645h-50.396l.204-1.645h50.396z" class="C H"/><path d="M243.116 107.18H192.72l-7.3 29.759h50.389l7.307-29.759z" class="B"/><path d="M243.116 107.18H192.72l-7.3 29.759h50.389l7.307-29.759z" class="C H"/><g class="B"><path d="M262.577 131.086s-7.416-12.786 2.848-22.961c0 0 2.685 1.753 2.644 4.078s-2.875 2.95-2.27 4.908 3.29 3.895 1.529 5.519.286 3.066.163 5.051-4.914 3.405-4.914 3.405z"/><use xlink:href="#I"/></g><use xlink:href="#I" class="C H"/><path d="M251.776 129.047s.251 9.516 9.707 9.516 9.699-9.516 9.699-9.516h-19.406z" class="B"/><path d="M251.776 129.047s.251 9.516 9.707 9.516 9.699-9.516 9.699-9.516h-19.406z" class="C H"/><g class="B"><path d="M188.313 77.148l16.578 15.307 10.66-19.887-6.408 1.077-3.83-22.779-14.421 2.425 3.829 22.779-6.408 1.077zm32.338-14.57a19.03 19.03 0 0 1 5.574-13.458c3.569-3.569 8.411-5.574 13.459-5.574v4.955a14.06 14.06 0 0 0-5.384 1.069 14.04 14.04 0 0 0-4.565 3.048 14.08 14.08 0 0 0-3.051 4.563 14.07 14.07 0 0 0-1.071 5.384l-4.962.014z"/><use xlink:href="#J"/></g><use xlink:href="#J" class="E H"/><use xlink:href="#K" class="B"/><use xlink:href="#K" opacity=".7" class="C"/><defs ><path id="B" d="M156.28 172.965h-41.328a14.49 14.49 0 0 1-14.492-14.2l-1.536-62.807c-.029-1.404.223-2.799.74-4.105s1.29-2.495 2.272-3.498a10.56 10.56 0 0 1 3.45-2.345c1.294-.544 2.684-.825 4.088-.826h25.912c2.593.002 5.095.957 7.029 2.685a10.56 10.56 0 0 1 3.459 6.682l10.407 78.415z"/><path id="C" d="M140.585 77.237c-2.509 1.767-3.501 4.337-.728 6.852s6.73 2.433 7.926 1.4.958-6.281.958-6.281l-8.156-1.971z"/><path id="D" d="M169.95 102.952c2.916.741 4.948 12.731 4.948 12.731l-8.028 5.438s-7.701-12.099-5.437-15.301c2.317-3.29 4.262-3.929 8.517-2.868z"/><path id="E" d="M169.95 102.952s3.399 1.183-3.399 42.667h-28.698c.482-11.685.496-18.89-5.085-42.878 4.019-.828 8.092-1.364 12.188-1.604 4.342-.31 8.701-.31 13.044 0 5.601.537 11.95 1.815 11.95 1.815z"/><path id="F" d="M132.768 102.768c-2.882.877-6.335 10.781-6.335 10.781l9.278 9.061s5.955-9.347 4.758-13.065c-1.271-3.874-4.418-7.769-7.701-6.777z"/><path id="G" d="M286.946 138.584h-54.08v105.19h54.08v-105.19z"/><path id="H" d="M286.974 246.832h-30.025c-2.038-.001-3.992-.812-5.434-2.253s-2.252-3.396-2.253-5.434v-94.729a6.8 6.8 0 0 0-6.798-6.797h-8.986v-.68h8.979a7.48 7.48 0 0 1 7.478 7.477v94.729a7.01 7.01 0 0 0 2.054 4.953c1.314 1.314 3.096 2.053 4.954 2.055h30.031c.511.001 1.009-.16 1.423-.459a2.42 2.42 0 0 0 .894-2.702c-.154-.487-.459-.913-.87-1.217l.401-.544c.525.39.913.934 1.111 1.557s.193 1.292-.012 1.912a3.11 3.11 0 0 1-1.129 1.543 3.1 3.1 0 0 1-1.818.589z"/><path id="I" d="M263.141 132.256s3.004-14.472-9.965-20.882c0 0-1.999 2.508-1.217 4.758s3.657 1.89 3.698 3.949-1.89 4.725.292 5.71.68 3.005 1.435 4.854 5.757 1.611 5.757 1.611z"/><path id="J" d="M220.651 62.578h4.962a14.07 14.07 0 0 0 14.071 14.071 13.92 13.92 0 0 0 7.028-1.89l2.488 4.33c-2.893 1.671-6.176 2.55-9.517 2.55a19.03 19.03 0 0 1-9.516-2.55c-2.894-1.67-5.296-4.073-6.967-6.967a19.04 19.04 0 0 1-2.549-9.517v-.027z"/><path id="K" d="M239.683 48.501v-4.969c4.203-.016 8.293 1.36 11.633 3.913a19.03 19.03 0 0 1 6.825 10.2c1.087 4.06.799 8.366-.818 12.245s-4.474 7.114-8.124 9.2l-2.481-4.303a14.06 14.06 0 0 0 6.628-15.858c-.804-3.004-2.581-5.657-5.053-7.544s-5.5-2.901-8.61-2.884z"/></defs></svg>